<?xml version="1.0" encoding="utf-8"?>
<!-- Generator: Adobe Illustrator 25.3.1, SVG Export Plug-In . SVG Version: 6.00 Build 0)  -->
<svg version="1.1" id="Layer_1" xmlns="http://www.w3.org/2000/svg" xmlns:xlink="http://www.w3.org/1999/xlink" x="0px" y="0px"
	 viewBox="0 0 595.3 841.9" style="enable-background:new 0 0 595.3 841.9;" xml:space="preserve">
<style type="text/css">
	.st0{fill:#2C2523;}
	.st1{fill:none;stroke:#2C2523;stroke-width:0.25;stroke-miterlimit:10;}
</style>
<g id="XMLID_1_">
	<g>
		<path class="st0" d="M73.9,524.2c12.5,16.1,25.6,29.1,39.5,39.2C94.4,550.5,88.4,545.9,73.9,524.2z"/>
		<path class="st0" d="M73.7,523.9c0.1,0.1,0.1,0.2,0.2,0.3c-5.8-7.5-11.5-15.7-17.1-24.6C36.6,467.4,22,427,15.5,386.3l0.1,0
			C23.2,434.1,46.1,483.9,73.7,523.9z"/>
		<path class="st0" d="M12.8,317.9c6.5-67.2,26.5-123,57.3-169.1c-36.2,57.7-54,126.7-57,196.1c-0.7,13.4,0.3,27.3,2.5,41.3l-0.1,0
			C11.8,363.1,10.7,339.8,12.8,317.9z"/>
		<path class="st0" d="M103.9,104.3c-1.6,2.3-3,4.6-4.4,7.1c-10.7,11.7-20.5,24.2-29.4,37.5C80,133.1,91.2,118.2,103.9,104.3z"/>
		<path class="st0" d="M147.6,65.2c-16.1,11.8-30.7,24.9-43.7,39.1C114.6,88.7,129.7,75.7,147.6,65.2z"/>
		<path class="st0" d="M149.8,63.6c33.7-18.7,62.6-28.8,103.4-31.7c-37.8,4.9-75.6,15.7-105.6,33.3
			C148.3,64.6,149.1,64.1,149.8,63.6z"/>
		<path class="st0" d="M310.4,32c-2.7-0.2-5.3-0.3-8-0.4c-18.5-0.8-34.6-0.7-49.3,0.3c8.1-1.1,16.3-1.9,24.3-2.4
			C283.3,29.1,295.5,30.1,310.4,32z"/>
		<path class="st0" d="M378,43.4c-20.9-4.5-46.8-8.8-67.6-11.4C332.3,33.4,355.2,37.1,378,43.4z"/>
		<path class="st0" d="M412.9,53.8c5.3,2.6,10.5,5.2,15.6,8C412,54.1,395,48,378,43.4C394.6,47,408,50.7,412.9,53.8z"/>
		<path class="st0" d="M541.1,159.3l-0.6,0.4c-27.2-41-66.1-73.2-112-97.9C472.3,82.2,512.7,113.7,541.1,159.3z"/>
		<path class="st0" d="M577.4,382.7c9-44.4,10.4-89.5,0.2-129.5c-6.3-35.4-19.2-66.4-37.1-93.5l0.6-0.4
			c34.9,49.7,45.5,107.6,45,157.6C586,337.8,582.8,360,577.4,382.7z"/>
		<path class="st0" d="M525.2,518.4c21.8-42.7,41.4-90.2,52.2-135.7C567.5,431.3,548.5,479.1,525.2,518.4z"/>
		<path class="st0" d="M402.2,598.7c61.7-7.1,97.6-46,113.4-64.7c3.3-5,6.5-10.2,9.7-15.5c-1.4,2.8-2.9,5.6-4.3,8.4
			c-14.2,22.6-55.9,59.4-88.4,66c-32,13.4-3.5,2-39.3,16.4l-14.5,2.4c-34.7,5.2-52.4,10.7-105.3,11.4c-24.2-4.3-25.1-3.1-39.7-6.1
			c-10.7-1.5-103.9-38.7-112.6-48.3c-0.3-0.2-0.6-0.4-0.8-0.6c15.4,9.9,31.6,16.3,48.8,19.3c-0.5-0.3-1.1-0.6-1.6-0.9l1.4-2.5
			c14,7.9,78.8,29.2,90.9,31.5c9.4,1.8,39.7,3.5,50.4,2.1c12.2-1.5,16.7,0,30-3.4c8.7-1.6,12.1-2,17.5-3.8c8.6-2.8,25.3-3.2,45-13.4
			l0.5,1.2C402.8,598.4,402.5,598.5,402.2,598.7z"/>
		<path class="st0" d="M302.3,142.4c0.7,0.1,1.4,0.2,2.1,0.4l-0.4,1.9c-10.5-2.3-16.5,3.7-31,12.5c-12.2,7.5-34.5,29.4-42.3,47.1
			c-2,4.6-3.3,8.8-4,12.6l-1.8-0.1c0.6-3.4,1.5-6.6,2.1-8.9c3.3-12.3,12.9-23.3,18.4-29.6c8.1-9.1,21.1-20.1,28.9-25.3
			C284.3,145.7,291.5,140.5,302.3,142.4z"/>
		<path class="st0" d="M304.4,142.8c11.1,2.4,22.2,9.3,34.2,19.3c11.3,9.5,30.3,23.8,39.1,38.5c3.9,7.7,6.4,14,7.5,19.7l-1.8,0.3
			c-0.9-4.9-3.2-10.3-7.2-16.3c-8.2-16.9-35.4-36.6-43.7-43.8c-13.5-9.6-21.9-14.4-28.6-15.9L304.4,142.8z"/>
		<path class="st0" d="M335.1,247.9c-16.4-4.7-30.9-4.7-58.8-4.2c-2.8,0.1-5.6,0.2-8.3,0.5l-0.2-2.6c2.2-0.2,4.7-0.4,7.7-0.6
			c2.4,0.1,14.6-1.2,16.8-0.9c3.4-0.1,39.4,1.5,42,1.1c11.9,0.7,24.9,6,36.2,5.1c9.7-6.2,15-14.5,13-25.7l1.8-0.3
			c0.7,3.6,0.8,7,0.3,10.2c-1.2,8.6-5.9,11.2-8.1,14.4c-3.4,4.9,3.8,2.8,17.6,10.2c81.3,46.3,112.8,101.5,105.1,178.7
			c-5.6,45.5-39.4,138.6-97.1,164.6l-0.5-1.2c14.9-7.6,31.5-20.8,47.7-44.7c20.7-32.9,32.4-60.9,39.2-97
			c8.9-50.8,5.9-100-42.2-152.9c-9.6-12-40.1-29.8-54.6-41.5C380.9,256.7,351.1,249.1,335.1,247.9z"/>
		<path class="st0" d="M226.7,216.8c-2.4,14.5,5.3,23,21.7,24.9c8.6,0.8,12.9,0.5,19.4-0.1l0.2,2.6c-28.9,2.6-57.8,14.9-66.4,19.7
			c-27.3,15.4-47.4,30.9-61.7,46.9c-35.9,39.9-45.1,61.7-46.3,111.6c-4.7,48,29.5,137,73.1,160c0.4,0.4,1.2,1,2.2,1.5l-1.4,2.5
			C111.2,555.2,86.7,474.1,88.8,423c1.8-44,6.1-67,38-105.1c22.2-26.5,59.3-58.2,99.7-71.8c8.9-1.2,11.4-1,2.2-10.6
			c-4.9-5.1-4.9-12.5-3.8-18.9L226.7,216.8z"/>
	</g>
	<g>
		<path class="st1" d="M113.6,563.5c2.1,1.4,4.3,2.9,6.7,4.6c0.3,0.2,0.6,0.4,0.8,0.6c8.7,9.6,101.9,46.8,112.6,48.3
			c14.6,3,15.5,1.8,39.7,6.1c52.9-0.7,70.6-6.2,105.3-11.4"/>
		<path class="st1" d="M73.9,524.2c14.5,21.6,20.5,26.2,39.5,39.2"/>
		<path class="st1" d="M378.7,611.6l14.5-2.4c35.7-14.4,7.2-3,39.3-16.4c32.6-6.6,74.2-43.5,88.4-66c1.5-2.8,2.9-5.6,4.3-8.4
			c21.8-42.7,41.4-90.2,52.2-135.7c5.4-22.7,8.6-44.9,8.7-65.9c0.4-50-10.2-107.9-45-157.6c-28.4-45.6-68.8-77.1-112.6-97.5
			C412,54.1,395,48,378,43.4c-22.9-6.3-45.8-10-67.6-11.4c-2.7-0.2-5.3-0.3-8-0.4c-18.5-0.8-34.6-0.7-49.3,0.3
			c-40.8,2.9-69.7,13-103.4,31.7c-0.7,0.5-1.5,1-2.2,1.6c-16.1,11.8-30.7,24.9-43.7,39.1c-12.7,13.9-23.9,28.8-33.8,44.5
			c-36.2,57.7-54,126.7-57,196.1c-0.7,13.4,0.3,27.3,2.5,41.3c7.6,47.8,30.5,97.6,58,137.6c0.1,0.1,0.1,0.2,0.2,0.3"/>
		<path class="st1" d="M340.1,614.2c-13.3,3.4-17.8,1.9-30,3.4c-10.7,1.3-40.9-0.3-50.4-2.1c-12-2.3-76.9-23.6-90.9-31.5
			c-1.1-0.6-1.8-1.1-2.2-1.5c-43.5-23-77.8-112-73.1-160c1.2-49.9,10.4-71.7,46.3-111.6c14.4-16,34.4-31.5,61.7-46.9
			c8.6-4.9,37.5-17.2,66.4-19.7c2.8-0.2,5.6-0.4,8.3-0.5c27.9-0.6,42.3-0.6,58.8,4.2c16,1.2,45.8,8.9,57.6,13.1
			c14.5,11.8,45,29.6,54.6,41.5c48.1,52.8,51,102.1,42.2,152.9c-6.8,36.1-18.5,64.1-39.2,97c-16.3,23.9-32.9,37.1-47.7,44.7
			c-19.7,10.2-36.4,10.6-45,13.4C352.2,612.2,348.7,612.6,340.1,614.2"/>
		<path class="st1" d="M169.1,587.3c-17.2-3-33.4-9.4-48.8-19.3c-2.2-1.4-4.5-3-6.7-4.6c0,0-0.1-0.1-0.1-0.1
			c-13.9-10-27-23-39.5-39.2c0,0,0,0-0.1-0.1c-5.8-7.5-11.5-15.7-17.1-24.6C36.6,467.4,22,427,15.5,386.3
			c-3.7-23.2-4.7-46.4-2.6-68.3c6.5-67.2,26.5-123,57.3-169.1c8.9-13.3,18.7-25.8,29.4-37.5c1.4-2.4,2.8-4.8,4.4-7.1
			c10.7-15.6,25.8-28.6,43.7-39.1c30-17.6,67.8-28.4,105.6-33.3c8.1-1.1,16.3-1.9,24.3-2.4c5.8-0.4,18,0.6,32.9,2.5
			c20.8,2.6,46.8,6.9,67.6,11.4c16.6,3.6,29.9,7.3,34.8,10.4c5.3,2.6,10.5,5.2,15.6,8c45.8,24.7,84.8,56.9,112,97.9
			c18,27.1,30.8,58.1,37.1,93.5c10.2,40,8.8,85.1-0.2,129.5c-9.9,48.6-28.9,96.3-52.2,135.7c-3.1,5.4-6.4,10.5-9.7,15.5
			c-15.7,18.7-51.6,57.6-113.4,64.7c0.3-0.1,0.6-0.2,0.9-0.4c57.6-26.1,91.4-119.1,97.1-164.6c7.7-77.2-23.7-132.4-105.1-178.7
			c-13.8-7.3-21-5.3-17.6-10.2c2.1-3.1,6.9-5.8,8.1-14.4c0.5-3.3,0.4-6.6-0.3-10.2c-1.1-5.7-3.6-12-7.5-19.7
			c-8.8-14.7-27.8-29.1-39.1-38.5c-11.9-10-23.1-16.9-34.2-19.3c-0.7-0.1-1.4-0.3-2.1-0.4c-10.8-1.8-18.1,3.4-28,10.5
			c-7.8,5.2-20.9,16.2-28.9,25.3c-5.5,6.2-15.1,17.3-18.4,29.6c-0.6,2.4-1.5,5.5-2.1,8.9c-1.1,6.4-1.1,13.8,3.8,18.9
			c9.2,9.5,6.6,9.4-2.2,10.6c-40.4,13.7-77.6,45.4-99.7,71.8C94.9,356,90.6,379,88.8,423c-2.1,51.1,22.4,132.3,78.7,163.5
			C168,586.8,168.5,587,169.1,587.3"/>
		<path class="st1" d="M370.5,246.3c-11.3,0.8-24.3-4.5-36.2-5.1c-2.6,0.4-38.6-1.3-42-1.1c-2.2-0.2-14.4,1-16.8,0.9
			c-3,0.2-5.5,0.4-7.7,0.6c-6.5,0.6-10.8,0.9-19.4,0.1c-16.3-1.8-24.1-10.4-21.7-24.9c0.6-3.8,1.9-8,4-12.6
			c7.8-17.7,30.1-39.6,42.3-47.1c14.5-8.8,20.5-14.8,31-12.5c6.6,1.5,15.1,6.3,28.6,15.9c8.3,7.2,35.5,26.9,43.7,43.8
			c4,6,6.3,11.4,7.2,16.3C385.5,231.7,380.2,240,370.5,246.3"/>
	</g>
</g>
</svg>
