<?xml version="1.0" encoding="utf-8"?>
<!-- Generator: Adobe Illustrator 25.3.1, SVG Export Plug-In . SVG Version: 6.00 Build 0)  -->
<svg version="1.1" id="Layer_1" xmlns="http://www.w3.org/2000/svg" xmlns:xlink="http://www.w3.org/1999/xlink" x="0px" y="0px"
	 viewBox="0 0 595.3 841.9" style="enable-background:new 0 0 595.3 841.9;" xml:space="preserve">
<style type="text/css">
	.st0{fill:none;stroke:#2C2523;stroke-width:0.25;stroke-miterlimit:10;}
	.st1{fill:none;stroke:#000000;stroke-width:0.25;stroke-miterlimit:10;}
</style>
<g id="XMLID_1_">
	<g>
		<path d="M74.2,535.9c-4-5.1-7.9-10.5-11.4-16.1C42.9,488,28.5,447.8,22.4,407.4l0.1,0C29.1,451.6,49.3,497.8,74.2,535.9z"/>
		<path d="M20.3,343.8c6.2-65.1,25.6-119.1,55.4-163.7c-35,55.9-52.3,122.7-55.1,189.9c-0.6,12.1,0.1,24.7,2,37.4l-0.1,0
			C19.2,385.8,18.3,364.2,20.3,343.8z"/>
		<path d="M108.5,136.8c-1.5,2.2-2.9,4.5-4.2,6.8c-10.4,11.4-19.9,23.6-28.6,36.5C85.3,164.7,96.2,150.2,108.5,136.8z"/>
		<path d="M150.9,98.8c-15.6,11.4-29.7,24.1-42.3,37.9C118.8,121.6,133.5,109,150.9,98.8z"/>
		<path d="M153,97.2c32.7-18.1,60.7-27.9,100.2-30.7c-36.7,4.8-73.3,15.2-102.4,32.3C151.6,98.3,152.3,97.7,153,97.2z"/>
		<path d="M308.8,66.6c-2.6-0.2-5.2-0.3-7.7-0.4c-17.9-0.8-33.6-0.7-47.8,0.3c7.9-1,15.8-1.8,23.7-2.3
			C282.5,63.8,294.3,64.7,308.8,66.6z"/>
		<path d="M374.3,77.6c-20.2-4.4-45.4-8.5-65.5-11.1C329.9,68,352.1,71.6,374.3,77.6z"/>
		<path d="M408.1,87.7c5.1,2.5,10.2,5.1,15.1,7.8c-16-7.4-32.5-13.3-49-17.9C390.4,81.1,403.3,84.7,408.1,87.7z"/>
		<path d="M532.4,190c33.8,48.2,44.1,104.3,43.7,152.8c-0.2,20.2-3.2,41.6-8.4,63.5c8.7-43,10-86.5,0.1-125.2
			C552.4,194.9,497,135.3,423.2,95.5C465.7,115.2,504.8,145.8,532.4,190z"/>
		<path d="M517.1,538c21.1-41.5,40.1-87.6,50.6-131.7C558.1,453.4,539.6,499.8,517.1,538z"/>
		<path d="M427,610.1c40.6-14.7,68.6-42.6,80.6-56.9c3.2-4.9,6.4-10,9.5-15.2c-1.4,2.8-2.8,5.6-4.3,8.3
			c-13.8,21.9-54.1,57.6-85.7,64L427,610.1z"/>
		<path d="M170.3,494.3c0,0.6,0,1.2,0,1.8l-2.5,0c-0.3-18.1,1.9-36,6.6-48.2c2.9-7.5,8.9-18.9,16.5-30.3l2.2,1.1
			C178.9,440,170.3,465.9,170.3,494.3z"/>
		<path d="M333.9,627.1c-19.6,13,50.4,1.8,93.2-36.6l0.9,1c-11.5,10.3-24,19.5-36.8,27C404,617,416,614,427,610.1l0.1,0.2
			c-31.1,13-57,20.7-93.6,27.8l-14.2-0.4c-34-1.5-51.8,0.5-102.3-8.6c-22.3-8.6-23.3-7.5-36.7-13.2c-9.9-3.5-46.6-19.8-55-29.1
			c-24.6-16.8-30-19.5-45.9-43.4c-1.7-2.5-3.4-5-5-7.5c32.1,40.5,78.8,64.9,113.8,78.2c-41.6-27.8-62.8-60.3-72.7-93.1l2.8-0.9
			c10,32.6,32.8,59.4,54.7,77.9c5.9,5.9,20.6,16.5,32.5,21.3c8.6,3.5,70.3,12.9,60.4,9.5c-45.2-15.7-75.9-45.8-90.1-84.3
			c-4.9-13.2-7.5-31-7.8-48.5l2.5,0c0.9,74.7,61.5,133.8,129.2,133.8c22.9,0,45.3-6.8,65-18.6l0.1,0.1
			C348.5,621,335.6,626,333.9,627.1z"/>
		<path d="M423.9,440.3c9,17,9.8,38.9,10.4,58.8c1.7,58.7-39.5,93.9-69.7,112.2l-0.1-0.1c38.8-23.4,66.8-66.8,66.8-116.9
			c0-28.4-9-54.4-23.8-75.8l1.7-1.2C415.5,426.2,420.9,434.8,423.9,440.3z"/>
		<path d="M407.5,418.5c-24.6-35.6-65.4-58.5-108-58.5c-17.6,0-34.7,3.9-50.4,11l-1-2.3c17.1-7.8,35.8-13.2,50.2-12.4
			c37.4,0.6,65.1,17.1,83,29.4c7.7,5.3,18.7,18.8,27.9,31.7L407.5,418.5z"/>
		<path d="M249.1,371c-22.4,10.1-41.9,26.7-55.9,47.6l-2.2-1.1c8.7-13,19.4-26,30.2-33.6c7.7-5.4,17.1-10.7,27-15.2L249.1,371z"/>
		<path d="M192.9,242.6c3.2-12.6,12.7-26.4,20.1-36.3l1.9,1.4c-4.3,5.7-8.2,12-11.4,18.6c-5.3,10.9-9.6,21.4-10.6,29.8l-2.5-0.3
			C191,251.2,192,246.1,192.9,242.6z"/>
		<path d="M282.5,155.7l0.9,2.5c-8.7,2.9-18.4,8.4-31.1,16.5c-12.7,7.2-26.4,18.5-37.3,33l-1.9-1.4c3.9-5.2,7.2-9.3,8.7-11.6
			c5.3-8.3,10.2-11.2,23-21.9C250.6,169.7,267.7,160.8,282.5,155.7z"/>
		<path d="M395.6,218.9c11.5,17.7,16.8,28.8,16.7,36.7c0,1.4,0,2.8,0,4.3l-2.2,0c0-9.8-5.6-22.2-13.6-33.4
			c-11.9-22.4-39.5-41-51.5-50.5c-29.5-18.3-43.6-23.7-61.6-17.7l-0.9-2.5c7-2.4,13.6-3.9,18.1-3.5c19.5,1.8,48.3,20.4,59.9,30.8
			C371.2,192.6,392.6,212.6,395.6,218.9z"/>
		<path d="M410.1,259.8l2.2,0c-0.1,7.5-0.9,15.6-6.3,18.6c-2.1,1.2-10,1.2-17.4,1.4l0-2.1C404.1,277.5,410.1,270,410.1,259.8z"/>
		<path d="M372,276.1c6.4,1.3,11.9,1.8,16.5,1.7l0,2.1c-10,0.3-19.1,0.8-11.4,4.9c95.6,82.4,116.8,146.9,109.5,210.3
			c-5.8,35.6-29.1,70-58.7,96.5l-0.9-1c6.5-5.9,12.4-12.3,17.2-19.5c20-31.9,32-40.4,38.6-75.4c8.6-49.2-15.6-113-62.2-164.2
			c-9.3-11.6-28.2-28.4-42.3-39.8c-11.4-4.1-13-15.3-28.5-16.4c-5.5-1.6-12.7-2.5-20.9-3.1l0.2-2.5c5.1,0.4,11.9,0.5,15.2,0.8
			C358.9,273.7,355.6,273.5,372,276.1z"/>
		<path d="M328.9,272.2c-15.8-1.1-35.4-0.7-53.2-0.3c-30.5,0.6-48.1,13-57.2,18.1c-26.5,15-41.6,36.2-57,50.1
			c-44.9,40.6-58.8,109.8-44.9,174.6c0.5,1.9,1,3.7,1.6,5.6l-2.8,0.9c-4.9-16-7.1-32.2-7.7-47.9c-1.3-32.4,4.6-91,41.5-127.4
			c23.8-23.5,41-52.4,80.1-65.6c1.6-9.5-29.9,10.4-38.6-14.1c-0.7-2.1-0.6-6-0.1-10.2l2.5,0.3c-1.7,14.2,6.2,22.4,34.8,15.9
			c19.6-4,31.6-3,48.9-4.1c3.4,0.1,20.2,0.1,23.5,0.4c5-0.2,7.5,0.1,11.4,0.3c4.3,0.5,8.8,0.1,13.8,0.6c1.1,0.2,2.4,0.3,3.8,0.4
			L328.9,272.2z"/>
	</g>
	<g>
		<path class="st0" d="M108.5,136.8c-12.3,13.5-23.2,28-32.8,43.3c-35,55.9-52.3,122.7-55.1,189.9c-0.6,12.1,0.1,24.7,2,37.4
			c6.5,44.3,26.8,90.4,51.7,128.6c1.7,2.5,3.3,5,5,7.5c15.9,23.9,21.4,26.5,45.9,43.4c8.4,9.3,45.1,25.7,55,29.1
			c13.4,5.6,14.4,4.6,36.7,13.2c50.4,9.1,68.3,7.2,102.3,8.6"/>
		<path class="st0" d="M319.2,637.7l14.2,0.4c36.7-7.1,62.6-14.9,93.6-27.8c31.6-6.4,71.9-42.2,85.7-64c1.4-2.8,2.9-5.5,4.3-8.3
			c21.1-41.5,40.1-87.6,50.6-131.7c5.2-21.9,8.2-43.3,8.4-63.5c0.4-48.4-9.8-104.6-43.7-152.8c-27.5-44.2-66.7-74.7-109.1-94.5
			c-16-7.4-32.5-13.3-49-17.9c-22.1-6.1-44.3-9.6-65.5-11.1c-2.6-0.2-5.2-0.3-7.7-0.4c-17.9-0.8-33.6-0.7-47.8,0.3
			c-39.5,2.8-67.5,12.7-100.2,30.7c-0.7,0.5-1.5,1.1-2.2,1.6c-15.6,11.4-29.7,24.1-42.3,37.9"/>
		<path class="st0" d="M298.3,356.2c-14.4-0.7-33.1,4.6-50.2,12.4c-9.9,4.5-19.3,9.8-27,15.2c-10.8,7.6-21.5,20.6-30.2,33.6
			c-7.6,11.5-13.6,22.9-16.5,30.3c-4.7,12.2-6.9,30.1-6.6,48.2c0.3,17.5,2.9,35.3,7.8,48.5c14.2,38.4,44.9,68.6,90.1,84.3
			c9.9,3.4-51.8-6-60.4-9.5c-11.9-4.7-26.6-15.4-32.5-21.3c-21.9-18.4-44.7-45.2-54.7-77.9c-0.6-1.8-1.1-3.7-1.6-5.6
			c-13.8-64.8,0-133.9,44.9-174.6c15.4-14,30.6-35.2,57-50.1c9.2-5.2,26.7-17.5,57.2-18.1c17.8-0.4,37.4-0.8,53.2,0.3
			c8.2,0.6,15.5,1.5,20.9,3.1c15.5,1.1,17.1,12.3,28.5,16.4c14.1,11.4,33.1,28.1,42.3,39.8c46.6,51.2,70.8,115,62.2,164.2
			c-6.6,35-18.6,43.5-38.6,75.4c-4.8,7.1-10.7,13.6-17.2,19.5c-42.8,38.5-112.8,49.7-93.2,36.6c1.8-1.2,14.7-6.1,30.7-15.8
			c30.2-18.3,71.4-53.5,69.7-112.2c-0.6-19.9-1.4-41.8-10.4-58.8c-3-5.6-8.4-14.2-14.7-23c-9.2-12.9-20.2-26.4-27.9-31.7
			C363.4,373.3,335.7,356.8,298.3,356.2"/>
		<path class="st0" d="M188,614.2c-35-13.4-81.7-37.7-113.8-78.2c-4-5.1-7.9-10.5-11.4-16.1C42.9,488,28.5,447.8,22.4,407.4
			c-3.2-21.6-4.1-43.2-2.1-63.6c6.2-65.1,25.6-119.1,55.4-163.7c8.7-13,18.2-25.1,28.6-36.5c1.3-2.3,2.7-4.6,4.2-6.8c0,0,0,0,0,0
			c10.3-15.2,25-27.7,42.3-37.9c29.1-17.1,65.7-27.5,102.4-32.3c7.9-1,15.8-1.8,23.7-2.3c5.6-0.4,17.4,0.6,31.9,2.4
			c20.1,2.5,45.3,6.7,65.5,11.1c16.1,3.5,29,7.1,33.8,10.1c5.1,2.5,10.2,5.1,15.1,7.8C497,135.3,552.4,194.9,567.8,281
			c9.8,38.7,8.6,82.2-0.1,125.2c-9.5,47.1-28,93.5-50.6,131.7c-3.1,5.2-6.2,10.3-9.5,15.2c-12,14.3-40.1,42.2-80.6,56.9
			c-11,4-23,7-35.7,8.5c12.7-7.5,25.2-16.6,36.8-27c29.5-26.4,52.9-60.9,58.7-96.5c7.3-63.4-13.8-127.9-109.5-210.3
			c-7.7-4.1,1.3-4.6,11.4-4.9c7.4-0.2,15.3-0.2,17.4-1.4c5.4-3,6.2-11.1,6.3-18.6c0-1.5,0-2.9,0-4.3c0.1-7.9-5.2-18.9-16.7-36.7
			c-3.1-6.3-24.5-26.3-35.1-35.8c-11.7-10.4-40.4-29-59.9-30.8c-4.5-0.4-11.1,1.1-18.1,3.5c-14.8,5-31.9,13.9-37.8,17.1
			c-12.8,10.7-17.7,13.5-23,21.9c-1.5,2.3-4.8,6.4-8.7,11.6c-7.4,9.9-17,23.6-20.1,36.3c-0.9,3.5-1.9,8.6-2.4,13.2
			c-0.5,4.2-0.6,8.1,0.1,10.2c8.6,24.5,40.2,4.6,38.6,14.1c-39.1,13.2-56.2,42.1-80.1,65.6c-36.9,36.4-42.8,95-41.5,127.4
			c0.6,15.7,2.8,31.9,7.7,47.9C125.2,553.9,146.4,586.4,188,614.2"/>
		<path class="st0" d="M372,276.1c-16.4-2.5-13.2-2.4-27.8-5.7c-3.2-0.2-10-0.4-15.2-0.8c-1.4-0.1-2.7-0.2-3.8-0.4
			c-5-0.4-9.5,0-13.8-0.6c-3.9-0.2-6.5-0.5-11.4-0.3c-3.3-0.3-20.1-0.3-23.5-0.4c-17.2,1.1-29.3,0.1-48.9,4.1
			c-28.6,6.4-36.5-1.7-34.8-15.9c1-8.4,5.3-18.9,10.6-29.8c3.2-6.6,7.1-12.9,11.4-18.6c10.9-14.5,24.6-25.9,37.3-33
			c12.8-8.1,22.4-13.6,31.1-16.5c18-6,32.1-0.6,61.6,17.7c12,9.5,39.6,28.1,51.5,50.5c8.1,11.2,13.6,23.6,13.6,33.4
			c0,10.2-6,17.6-21.5,18C383.9,277.9,378.4,277.4,372,276.1"/>
		<path class="st1" d="M407.5,418.5c14.8,21.4,23.8,47.4,23.8,75.8c0,50.2-28,93.5-66.8,116.9c-19.6,11.9-42,18.6-65,18.6
			c-67.7,0-128.3-59.1-129.2-133.8c0-0.6,0-1.2,0-1.8c0-28.3,8.6-54.3,22.9-75.7c14-21,33.6-37.5,55.9-47.6
			c15.7-7.1,32.8-11,50.4-11C342.1,360,382.9,382.9,407.5,418.5z"/>
	</g>
</g>
</svg>
