<?xml version="1.0" encoding="utf-8"?>
<!-- Generator: Adobe Illustrator 25.3.1, SVG Export Plug-In . SVG Version: 6.00 Build 0)  -->
<svg version="1.1" id="Layer_1" xmlns="http://www.w3.org/2000/svg" xmlns:xlink="http://www.w3.org/1999/xlink" x="0px" y="0px"
	 viewBox="0 0 595.3 841.9" style="enable-background:new 0 0 595.3 841.9;" xml:space="preserve">
<style type="text/css">
	.st0{fill:none;stroke:#000000;stroke-width:0.25;stroke-miterlimit:10;}
</style>
<g id="XMLID_1_">
	<g>
		<path d="M30.9,534c-1.1,7.5-1.6,14.1-3.8,26c-0.4,2-0.7,4-0.9,5.9C27.7,552.4,29.3,542.2,30.9,534z"/>
		<path d="M30.9,533.9c1.1-7.8,2.8-16.7,7.4-33.5c2.6-9.4,4.2-18.8,4.9-30C42.4,501.9,36.6,504.5,30.9,533.9z"/>
		<path d="M42,387.7c-0.9,17.4,0.7,33,1.2,47c0.6,14.1,0.6,25.6,0,35.8c0-0.3,0-0.7,0-1C42.3,429.3,38.6,415.1,42,387.7z"/>
		<path d="M50.2,343.3c-1.1,4-1.8,7.8-2.1,11.5c-3,13.4-5,23.9-6.1,32.9C42.7,374,44.9,359.3,50.2,343.3z"/>
		<path d="M64.9,310.5c7.9-15,20.2-32.5,32.3-47C89.3,273.8,75.8,291.6,64.9,310.5z"/>
		<path d="M109.1,250.1c9.8-10.4,19.6-19.5,28.9-27.9c-0.9,1-1.8,1.9-2.6,2.9C126.8,232.9,117.9,241,109.1,250.1z"/>
		<path d="M152.4,208.9c-2.6,2.4-5.3,4.9-8,7.7c-2.1,1.9-4.2,3.8-6.4,5.7C142.4,217.5,147.2,213.1,152.4,208.9z"/>
		<path d="M208.3,173.6c-17.5,9.9-38.5,21.1-55.9,35.3C171.4,191.7,188.1,184.6,208.3,173.6z"/>
		<path d="M226.4,168.2c-6,1.4-12,3.1-18.1,5.4C213.5,170.8,219.8,169.3,226.4,168.2z"/>
		<path d="M226.4,168.2c8.4-2,16.9-3.6,25.9-5.5C245,165.7,235.5,166.6,226.4,168.2z"/>
		<path d="M291.2,158.3c11.1-0.2,21.9,0.5,32.5,1.7c-0.2,0-0.4,0-0.6,0c-9.2-0.6-23.8-1.2-38.5-0.8
			C286.8,158.9,289,158.7,291.2,158.3z"/>
		<path d="M323.7,160c21.5,0.4,34.1,3.5,52.3,12.9c-7.5-3.2-15.3-6-23.5-8.2C343,162.7,333.4,161.1,323.7,160z"/>
		<path d="M376,172.9c17.3,7.4,33,17.3,48.7,28.4c-6.7-4.3-14.3-8.8-23.7-14C391.2,181.3,383.1,176.6,376,172.9z"/>
		<path d="M436.6,209.9c-4-2.9-8-5.8-11.9-8.6c22.4,14.4,33.2,26.5,57.8,56.9c4.8,5.5,9.8,11.2,14.7,17.1l-0.1,0c-1-1.2-2-2.3-3-3.5
			C472.2,247.1,458.2,228.5,436.6,209.9z"/>
		<path d="M541.8,346.3c2,5.7,3.6,10.8,4.9,15.5c-1.2-4.2-2.7-8.6-4.5-13.2c-9.7-23.7-27.9-53.4-44.9-73.4l0.1,0
			C514.9,296.3,532.4,320.3,541.8,346.3z"/>
		<path d="M560.9,501.7c9.6,32,8.1,44.1,7.5,58.8c-2.6-45.9-13.7-65.6-17.8-101.4C553,476.1,558.7,494.4,560.9,501.7z"/>
		<path d="M558.6,667.4c7.1-25.7,10.1-54.7,10.1-90.3c-0.5-6.4-0.4-11.6-0.3-16.5c1,17.9,0.8,39.9-1.7,68.3
			C561.3,657.7,561.2,660.1,558.6,667.4z"/>
		<path d="M558.6,667.5c-1.7,6.3-3.7,12.3-5.9,18.3c-1.8,5.9-4.2,11.7-6.7,17.1c0.7-2.1,1.2-3.8,1.7-5.1
			C554,679.3,556.9,672.3,558.6,667.5z"/>
		<path d="M201.8,386.9c22-10.1,35.6-28.6,46.8-50.9c1.3-2.7,1-1.3-0.2-3.7c-1.4-2.3-1.5-3-2.3-2.5l-1.2-1.9
			c1.9-1.1,3.7-2.1,5.5-3.2c0.9-0.5,1.9-1.1,2.7-1.6l1.7,2.3c-1.4,0.8-2.8,1.7-4.1,2.7c0.3,1.3,4,3.6,4.1,6.5
			c1.4,31.9-17.6,80.3-25.6,97.3c-9.3,24.6-15,39.6-18,53.2c-3.3,11.7-8,17.7-12.6,35.6c-5.7,10.8-9.3,24.6-14.6,33.9
			c-7.7,8.3-18.1,56.1-18.6,58.6c2.6-3.5,5.1-6.9,7.8-10.1l2.3,1.9c-17.7,21.5-21.9,53-21,80.6l-2.7,0.1c0-31.4,7.7-60,10.9-76.4
			c6.3-37.3,18-55.9,29.9-86.2c4.3-16.9,12.6-32.5,18.3-51.2c3.7-7.8,5.7-19.6,8.7-29.3c2-6.6,7.3-13.3,8.6-21.3
			c0.2-2.8-14.4-6.2-16-7c-8-3-11.5-5.5-24.3-12.1c-4.9-2.2-13.9-18.4-17.3-22.1c-1.2,9.7-18.9,41.6-33.2,71.1
			c-10.3,18.1-21.1,37.9-34.1,67.7c-24,46.6-37.9,58.7-39.8,99.9l-1.2,0c0.3-40.4,21.9-68.3,39.1-102.1
			c24.2-55.2,43.4-78.2,66.2-138.3c8.4-23.2-1.2-19.5-0.6-38.2c0.6-4.2,1.1-7.9,1.7-11.2l2.7,0.6c-1.2,6.7-1.7,18.5,4.8,21.4
			c5-15.5,23.5-62.4,69.1-88.6l1.2,2.3c-7,4.9-13.7,9.7-19.6,13.9c-12,12.6-10,10.5-16.2,20.5c-7.2,8-11.5,14.7-16.5,23
			c-6.5,8.7-9.2,18-10.5,22.5c-0.8,4.4-3.9,10.9-4.5,15.7c-3,13.5-4,16,1.7,27.5c5.7-5,11.6-12.4,17.9-19.9l1.9,1.9
			c-4.5,5.4-11.9,16.5-16.9,19.8C188.1,390.2,197,389.7,201.8,386.9z M249.5,339.8c-6,11.3-19.9,31.8-27.4,36.6
			c-15.1,12-22.3,16.5-38.8,15.8c6.3,4.6,18.6,12.6,30.9,17c14.3,7,7,6,18.3,4.7C248.9,367.6,250.2,350.8,249.5,339.8z"/>
		<path d="M323.2,822.4c-27.3,0.1-87.2-8.5-109.9-19c-25.5-7.3-47-17.5-71.4-27.8c-22-9.3-47.2-17.6-65.4-44.1
			c-21.8-35.7-49.4-79.9-51.6-136c2.2,38,18.7,72.6,39.9,112.2c6.7,9,16.6,26,21,30.6c7.7,8,15,15,24.6,20c3.7,1,20.4,8.8,22.3,8.3
			c-5.8-4.9-15.2-14.7-23.6-23.6l2.4-1.5c21.4,23.3,53.6,44.1,103.1,58c-50.3-29.5-62.9-73.9-62.9-113.9l2.7-0.1
			c0.2,4.9,0.5,9.6,0.9,14.2c3.7,34.9,23,63.9,45.9,81.9c8.1,8.3,30.6,19.3,44.9,26c19,10.3,55.6,12.3,79.2,11.9l0.9,0.3
			c7.2-0.4,14-1.2,20.4-2.5l0.3,1.7c-5.1,1-10.7,2.1-16.8,3.3L323.2,822.4z"/>
		<path d="M533.3,728.7c2.2-5.4,7.7-14.7,12.8-25.8c-5.7,17.1-20,57.7-56.4,77.5c-4.8,2.2-9.7,1.2-49.9,17.2
			c-42,10.5-56.2,14.2-92.6,21.5l-0.3-1.7c28.2-5.6,49.5-19.1,64.3-34l1.4,1.3c-6.9,7-14.9,13.9-24.1,20.6
			c48.9-6,86.9-21.8,100.2-38.1c26.2-32.1,31.3-75.6,27.7-117.8c4.3,36,2.6,59.1-4.7,77.9c-6.7,21-10.1,26.8-23,45.8
			C506.8,769.2,515.8,760.6,533.3,728.7z"/>
		<path d="M490.2,526.3c6.1,25,10.7,39.8,15.4,60.6c-7.3-29.7-16-54.6-20-68.6c-13.6-43.5-28-73.3-34.6-91.9
			c-5-18-8.6-23.6-16.3-37.9c-14.6,19.6-23.3,26.6-54.2,37.6c-0.5,1.9,1.9,7.6,4.5,13.9l-1.8,0.5c-2.9-6.1-5.8-12.2-8.6-18.4
			l1.1-0.5c7.5-1,5,0,13.1-4.8c12.3-4.3,24.7-12.4,30.9-17c-20.7,3-26.7-6.6-42.6-21.3c-7.4-4.8-18.3-20.6-24.3-31.9l2.5-1.4
			c11.5,21.2,31.1,41.1,50.5,50c4.3,1.1,8.9,1,13,0c-5.2-3.5-16.2-15.6-20.7-20.7l2.7-1.4c4.2,4.5,8,8.6,11.1,11.6
			c12.2,8.2,12,12.5,14.5,6.2c3.5-5,2.8-7.5,2-12.7c-0.4-5.3-3-12-4.5-19.2c-0.9-5.9-3.4-11.1-5.6-15.7l2.6-1.2
			c1.8,3.9,4,7.3,6.5,7.9c2.1,0,0-15.2-2.5-21.7c-6.2-20-30.5-53.1-37.7-59.4c-13.5-16.5-35.9-29.9-53.9-43.9
			c-24.8-17.6-45.4-15.5-68.4-3c-27.4,12-37.4,23-53.9,36.9c-2.2,2.4-4.3,4.7-6.3,7l-2.4-1.6c10.3-12.3,17.8-18.6,28.7-26.7
			c10-8,25.5-14.9,33.9-20.7c24.8-12.5,42.8-11.5,68.1,1.5c22.8,16.1,35,28.4,61.6,50.4c18,16.6,33.2,49.7,38.4,71.6
			c2.7,20.6-3.7,16.4,2.5,36.4c5.3,17,11.9,33.3,18.1,49.8C472.9,477.6,477.1,481.6,490.2,526.3z"/>
		<path d="M454.9,672.6c2.2,34.3-5.4,74.8-42.5,112l-1.4-1.3c8.9-8.9,15.5-18.3,19.9-26.7c16-25.9,23-50.7,22-83.8L454.9,672.6z"/>
		<path d="M454.9,672.6l-2,0.1c-4-27-10.5-52.4-23.5-69.4c-54.9-58.9-179.7-84.1-250.6-2.2c-1.2,1.2-2.3,2.5-3.4,3.8l-2.3-1.9
			c44.5-54.3,97.5-58.5,133.3-57.1c46.9-2.5,110.5,30.4,133.1,66c-0.1-0.3-0.2-0.7-0.3-1l2.6-0.8C446.3,625,453.3,647.1,454.9,672.6
			z"/>
		<path d="M441.9,610.2l-2.6,0.8c-13.8-43-18.9-75.2-26.3-92c-11.5-28-23.5-57.9-30-78.4l1.8-0.5c1.1,2.6,2.2,5.4,3.2,8
			c5.3,11,13,29.3,19,46.2c5,13,11,27,15.6,42.3C429.6,560.9,434.9,585.6,441.9,610.2z"/>
		<path d="M420.7,342.1l-2.6,1.2c-0.2-0.5-0.5-1-0.7-1.5c-4.7-8.7-6.2-12.7-10.5-19.5c-14-16.5-26.5-28-41.7-41.4
			c-32.9-24.2-45.2-41.4-71.5-40.4c-14.5,2.7-31.7,13.3-47.2,24.1l-1.2-2.3c54.4-50.9,84.4-13.5,107.1,5
			c20,12.5,56.5,49.2,62.4,62.4C416.5,331.3,418.4,337.1,420.7,342.1z"/>
		<path d="M400.6,373.1l-2.7,1.4C381.8,358,365.2,340,355.7,332c-3.2-2.7-1.3-0.8-3,1.3c-2,3.7-2.5,1.7-0.8,5.3
			c1,2.2,2.1,4.4,3.3,6.6l-2.5,1.4c2.6,11,18.7,63.7,22.8,75l-1.1,0.5c-13.1-28.8-24.3-58.4-27-87.9c-0.2-1.9,3.2-4.3,3.1-5.7
			c-19.1-15.8-64.3-21.9-95.7-3.2l-1.7-2.3c13.4-7.9,23.2-13.3,49.7-13.5c13.2,0.5,27.2,2.2,38.4,8c12.6,6.5,26.1,20.9,34,28.7
			C383.4,354.2,392.7,364.5,400.6,373.1z"/>
		<path d="M245,327.9l1.2,1.9c-0.4,0.2-1.1,0.9-2.4,1.7c-8.6,5.7-27,21.8-42.4,37.4c-0.1,0.2-0.3,0.3-0.4,0.5l-1.9-1.9
			c6.3-7.5,13.2-15.3,21-20.9C228.3,338,236.9,332.6,245,327.9z"/>
		<path d="M202.1,264.4l2.4,1.6c-13.7,16.3-21.1,32.2-31.6,58.9c-0.3,0.3-0.9,2.1-1.3,4.6l-2.7-0.6c3.7-20.5,8.5-27.7,21.7-49.9
			C194.9,273.2,198.7,268.5,202.1,264.4z"/>
		<path d="M111.5,741.5l-2.4,1.5c-5.1-5.3-9.8-10.3-13.3-13.7c-7-8.7-13.3-27.3-21.3-44.3c-6-21-7.7-30.3-11.3-51.2
			c-0.6-5.2-0.9-10.3-0.8-15.2l1.2,0C69.7,650.6,73.4,700,111.5,741.5z"/>
	</g>
	<g>
		<path class="st0" d="M30.9,534c-1.6,8.2-3.2,18.4-4.7,31.9c-0.1,0.9-0.2,1.8-0.3,2.8c-1,9.2-1.2,18.1-0.9,26.7
			c2.2,56.1,29.8,100.3,51.6,136c18.2,26.5,43.4,34.8,65.4,44.1c24.4,10.3,45.9,20.4,71.4,27.8c22.8,10.5,82.6,19.1,109.9,19"/>
		<path class="st0" d="M43.2,470.5c-0.9,31.4-6.6,34-12.3,63.5"/>
		<path class="st0" d="M50.2,343.3c-1.1,4-1.8,7.8-2.1,11.5c-3,13.4-5,23.9-6.1,32.9c-3.4,27.4,0.3,41.6,1.2,81.7c0,0.3,0,0.7,0,1"
			/>
		<path class="st0" d="M97.8,262.7c-0.2,0.3-0.4,0.5-0.6,0.7c-7.8,10.4-21.4,28.1-32.3,47c-6.3,11-11.8,22.3-14.7,32.8"/>
		<path class="st0" d="M108.6,250.7c-2.8,3-5.6,6.2-8.5,9.4c-0.4,0.6-1.5,1.6-2.3,2.5"/>
		<path class="st0" d="M284.5,159.1c-4.3,0.1-8.7,0.3-12.9,0.7c-7,0.6-13.7,1.4-19.4,2.8c-8.9,2-17.4,3.5-25.9,5.5
			c-6,1.4-12,3.1-18.1,5.4c-20.2,11-36.9,18.1-55.9,35.3c-2.6,2.4-5.3,4.9-8,7.7c-2.1,1.9-4.2,3.8-6.4,5.7
			c-9.3,8.4-19.1,17.4-28.9,27.9"/>
		<path class="st0" d="M375.9,172.9c-18.2-9.4-30.7-12.5-52.3-12.9c-0.2,0-0.4,0-0.6,0c-9.2-0.6-23.8-1.2-38.5-0.8"/>
		<path class="st0" d="M546.6,361.8c-1.2-4.7-2.8-9.9-4.9-15.5c-9.3-26-26.8-50-44.5-71.1c-5-5.9-9.9-11.6-14.7-17.1
			c-24.6-30.4-35.4-42.4-57.8-56.9c-6.7-4.3-14.3-8.8-23.7-14c-9.8-5.9-17.9-10.6-25-14.4"/>
		<path class="st0" d="M549.3,374.5c-0.6-3.8-1.5-7.9-2.6-12.3"/>
		<path class="st0" d="M550.2,405.9c0.6-10.4,0.9-19.8-0.9-31.2"/>
		<path class="st0" d="M549.2,427.4c0.1-7.6,0.5-14.1,0.9-20.3"/>
		<path class="st0" d="M550.7,459.1c-0.4-3.4-0.7-7-0.9-10.8c-0.5-7.3-0.6-13.7-0.5-19.5"/>
		<path class="st0" d="M558.6,667.4c2.6-7.3,2.7-9.7,8.1-38.6c2.5-28.4,2.8-50.4,1.7-68.3c-2.6-45.9-13.7-65.6-17.8-101.4"/>
		<path class="st0" d="M546,702.8c0.7-2.1,1.2-3.8,1.7-5.1c6.3-18.4,9.1-25.4,10.9-30.2"/>
		<path class="st0" d="M323.2,822.4l7-0.1c6.1-1.2,11.7-2.3,16.8-3.3c36.3-7.3,50.6-11,92.6-21.5c40.2-16,45.2-15,49.9-17.2
			c36.4-19.8,50.8-60.4,56.4-77.5"/>
		<path class="st0" d="M346.7,817.3c-6.5,1.3-13.2,2.1-20.4,2.5l-0.9-0.3c-23.6,0.4-60.2-1.6-79.2-11.9c-14.3-6.7-36.8-17.6-44.9-26
			c-23-18-42.3-46.9-45.9-81.9c-0.4-4.5-0.7-9.3-0.9-14.2c-0.9-27.6,3.3-59.1,21-80.6c1.1-1.3,2.2-2.6,3.4-3.8
			c70.9-81.9,195.7-56.7,250.6,2.2c13,17,19.4,42.4,23.5,69.4c1.1,33.2-6,57.9-22,83.8c-4.4,8.4-11,17.8-19.9,26.7
			C396.2,798.1,374.9,811.7,346.7,817.3z"/>
		<path class="st0" d="M505.5,586.9c-4.6-20.9-9.2-35.7-15.4-60.6c-13.1-44.8-17.3-48.8-36.6-99.5c-6.3-16.5-12.8-32.8-18.1-49.8
			c-6.2-20.1,0.2-15.8-2.5-36.4c-5.2-22-20.5-55-38.4-71.6c-26.6-22-38.8-34.3-61.6-50.4c-25.3-13-43.4-14-68.1-1.5
			c-8.4,5.8-24,12.7-33.9,20.7c-10.9,8-18.3,14.4-28.7,26.7c-3.4,4.1-7.2,8.8-11.5,14.5c-13.2,22.2-18.1,29.4-21.7,49.9
			c-0.6,3.4-1.2,7.1-1.7,11.2c-0.7,18.6,9,15,0.6,38.2c-22.8,60.1-42,83.1-66.2,138.3c-17.2,33.8-38.8,61.7-39.1,102.1
			c0,4.9,0.2,9.9,0.8,15.2c3.7,21,5.3,30.3,11.3,51.2c8,17,14.3,35.6,21.3,44.3c3.5,3.4,8.3,8.4,13.3,13.7
			c8.5,8.9,17.8,18.7,23.6,23.6c-1.9,0.4-18.6-7.3-22.3-8.3c-9.7-5-17-12-24.6-20c-4.3-4.7-14.3-21.6-21-30.6
			C43.7,668,27.2,633.4,25,595.5c-0.6-9.6-0.2-19.4,1.2-29.5c0.3-2,0.6-3.9,0.9-5.9c2.1-11.9,2.7-18.5,3.8-26c0,0,0-0.1,0-0.1
			c1.1-7.8,2.8-16.7,7.4-33.5c2.6-9.4,4.2-18.8,4.9-30c0,0,0-0.1,0-0.1c0.7-10.1,0.6-21.6,0-35.8c-0.6-14-2.1-29.6-1.2-47
			c0.7-13.7,2.9-28.4,8.2-44.4c0,0,0,0,0,0c3.1-9.2,7.2-18.9,12.7-28.9c0.6-1.3,1.3-2.6,2-3.9c7.9-15,20.2-32.5,32.3-47
			c0.2-0.2,0.4-0.5,0.6-0.7c0,0,0-0.1,0.1-0.1c3.5-4.2,7.1-8.2,10.8-12c0.2-0.2,0.3-0.4,0.5-0.5c8.8-9.1,17.6-17.2,26.3-25
			c0.8-1,1.7-2,2.6-2.9c4.4-4.8,9.2-9.2,14.4-13.4c17.4-14.1,38.4-25.3,55.9-35.3c5.1-2.8,11.5-4.3,18.1-5.4
			c9.1-1.6,18.6-2.5,25.9-5.5c6.1-2,12.7-2.5,19.4-2.8c4.2-0.2,8.6-0.3,12.9-0.7c0,0,0.1,0,0.1,0c2.2-0.2,4.4-0.5,6.6-0.9
			c11.1-0.2,21.9,0.5,32.5,1.7c9.8,1.1,19.3,2.7,28.7,4.6c8.2,2.2,16,5,23.5,8.2c0,0,0,0,0,0c17.3,7.4,33,17.3,48.7,28.4
			c4,2.8,7.9,5.7,11.9,8.6c21.6,18.6,35.6,37.3,57.6,61.9c1,1.1,2,2.3,3,3.5c17,20,35.2,49.7,44.9,73.4c1.9,4.6,3.4,8.9,4.5,13.2
			c0,0.1,0.1,0.2,0.1,0.3c1.2,4.2,2,8.3,2.6,12.3c0,0.1,0,0.1,0,0.2c1.6,10.7,1.4,20.8,0.9,31.2c0,0.4,0,0.9-0.1,1.3
			c-0.3,6.5-0.7,13.2-0.9,20.3c0,0.5,0,0.9,0,1.4c-0.1,6.1,0,12.6,0.5,19.5c0.1,3.4,0.4,7.1,0.9,10.8c0,0,0,0,0,0.1
			c2.3,16.9,8,35.3,10.2,42.6c9.6,32,8.1,44.1,7.5,58.8c-0.2,4.9-0.2,10.2,0.3,16.5c0,35.6-3,64.6-10.1,90.3c0,0,0,0,0,0.1
			c-1.7,6.3-3.7,12.3-5.9,18.3c-1.8,5.9-4.2,11.7-6.7,17.1c0,0,0,0,0,0c-5.1,11.1-10.5,20.4-12.8,25.8
			c-17.5,31.9-26.5,40.6-44.8,44.3"/>
		<path class="st0" d="M488.5,772.9c13-19,16.4-24.8,23-45.8c7.3-18.8,9-41.9,4.7-77.9c-1.4-11.7-3.4-24.7-6.1-39.4
			c-1.6-8.6-3.1-16-4.6-22.7"/>
		<path class="st0" d="M388.3,805.2c9.1-6.7,17.1-13.6,24.1-20.6c37-37.2,44.7-77.7,42.5-112c-1.6-25.5-8.6-47.6-13-62.4
			c-7-24.6-12.3-49.2-19.3-73.5c-4.7-15.3-10.6-29.3-15.6-42.3c-6-17-13.7-35.3-19-46.2c-1-2.6-2.1-5.4-3.2-8
			c-2.6-6.3-4.9-12.1-4.5-13.9c30.9-11,39.6-18,54.2-37.6c7.6,14.3,11.3,19.9,16.3,37.9c6.7,18.6,21,48.4,34.6,91.9
			c4,14,12.8,38.9,20,68.6c0,0.1,0,0.1,0,0.2c4.7,19.3,8.8,40.5,10.7,62.1c3.6,42.2-1.5,85.7-27.7,117.8
			C475.2,783.4,437.3,799.2,388.3,805.2"/>
		<path class="st0" d="M214.6,799.5c-49.5-13.9-81.7-34.7-103.1-58c-38.1-41.5-41.9-90.9-48-122.9c1.9-41.3,15.8-53.3,39.8-99.9
			c13-29.8,23.8-49.5,34.1-67.7c14.3-29.4,32-61.4,33.2-71.1c3.4,3.7,12.4,19.8,17.3,22.1c12.8,6.7,16.3,9.1,24.3,12.1
			c1.6,0.8,16.2,4.2,16,7c-1.3,8-6.6,14.6-8.6,21.3c-3,9.6-5,21.5-8.7,29.3c-5.7,18.8-14,34.4-18.3,51.2
			c-12,30.3-23.6,48.9-29.9,86.2c-3.2,16.4-10.9,45-10.9,76.4C151.8,725.6,164.3,770.1,214.6,799.5"/>
		<path class="st0" d="M439.6,612c-22.6-35.6-86.2-68.5-133.1-66c-35.8-1.4-88.9,2.8-133.3,57.1c-2.6,3.2-5.2,6.6-7.8,10.1
			c0.5-2.5,11-50.2,18.6-58.6c5.3-9.3,9-23.2,14.6-33.9c4.7-18,9.3-24,12.6-35.6c3-13.6,8.7-28.6,18-53.2c8-17,26.9-65.4,25.6-97.3
			c-0.1-2.8-3.8-5.2-4.1-6.5c1.3-0.9,2.7-1.8,4.1-2.7c31.4-18.8,76.6-12.6,95.7,3.2c0.1,1.4-3.3,3.8-3.1,5.7
			c2.6,29.5,13.9,59.1,27,87.9c2.8,6.2,5.7,12.3,8.6,18.4c6.5,20.5,18.5,50.4,30,78.4c7.4,16.8,12.6,49,26.3,92
			C439.4,611.4,439.5,611.7,439.6,612"/>
		<path class="st0" d="M388.7,416.9c-8.2,4.8-5.7,3.8-13.1,4.8c-4.1-11.4-20.2-64-22.8-75c6,11.3,16.9,27.1,24.3,31.9
			c15.9,14.7,21.9,24.3,42.6,21.3C413.3,404.5,401,412.5,388.7,416.9"/>
		<path class="st0" d="M201.8,386.9c-4.8,2.8-13.7,3.3-17.8,2.3c5-3.4,12.4-14.5,16.9-19.8c0.1-0.2,0.3-0.3,0.4-0.5
			c15.4-15.6,33.8-31.7,42.4-37.4c1.3-0.9,2-1.5,2.4-1.7c0.8-0.4,0.9,0.2,2.3,2.5c1.2,2.3,1.5,1,0.2,3.7
			C237.4,358.3,223.9,376.8,201.8,386.9"/>
		<path class="st0" d="M181.1,387.5c-5.7-11.5-4.7-14-1.7-27.5c0.6-4.8,3.7-11.3,4.5-15.7c1.2-4.5,4-13.7,10.5-22.5
			c5-8.2,9.2-15,16.5-23c6.2-10,4.2-7.9,16.2-20.5c5.9-4.1,12.6-9,19.6-13.9c15.5-10.7,32.6-21.4,47.2-24.1
			c26.3-1,38.5,16.2,71.5,40.4c15.2,13.5,27.7,24.9,41.7,41.4c4.3,6.8,5.7,10.7,10.5,19.5c0.2,0.5,0.5,1,0.7,1.5
			c2.1,4.6,4.6,9.9,5.6,15.7c1.5,7.2,4.1,13.9,4.5,19.2c0.8,5.2,1.5,7.7-2,12.7c-2.5,6.2-2.2,2-14.5-6.2c-3.1-3-6.9-7.1-11.1-11.6
			c-8-8.6-17.2-19-25.3-26.9c-7.9-7.8-21.4-22.2-34-28.7c-11.2-5.7-25.2-7.5-38.4-8c-26.6,0.1-36.3,5.5-49.7,13.5
			c-0.9,0.5-1.8,1.1-2.7,1.6c-1.8,1.1-3.6,2.1-5.5,3.2c-8,4.7-16.6,10.1-25,18.7c-7.8,5.7-14.6,13.4-21,20.9
			S186.9,382.5,181.1,387.5"/>
		<path class="st0" d="M176.4,350.8c-6.5-2.9-6-14.7-4.8-21.4c0.5-2.5,1-4.3,1.3-4.6c10.5-26.6,17.9-42.6,31.6-58.9
			c2-2.3,4.1-4.7,6.3-7c16.5-14,26.5-25,53.9-36.9c23-12.5,43.6-14.6,68.4,3c18,14.1,40.4,27.5,53.9,43.9
			c7.2,6.3,31.4,39.4,37.7,59.4c2.5,6.5,4.5,21.7,2.5,21.7c-2.5-0.6-4.6-4-6.5-7.9c-2.4-5-4.2-10.9-5.8-12.6
			c-5.9-13.2-42.4-49.9-62.4-62.4c-22.7-18.5-52.7-55.9-107.1-5C199.8,288.4,181.4,335.3,176.4,350.8"/>
		<path class="st0" d="M405.7,395.2c-19.3-8.9-39-28.7-50.5-50c-1.2-2.2-2.3-4.4-3.3-6.6c-1.7-3.7-1.2-1.7,0.8-5.3
			c1.7-2.2-0.2-4,3-1.3c9.5,8,26,26,42.3,42.5c4.4,5.1,15.5,17.2,20.7,20.7C414.5,396.2,410,396.3,405.7,395.2"/>
		<path class="st0" d="M214.3,409.2c-12.3-4.3-24.7-12.4-30.9-17c16.5,0.7,23.6-3.8,38.8-15.8c7.4-4.8,21.4-25.3,27.4-36.6
			c0.7,11-0.6,27.8-16.9,74C221.3,415.2,228.6,416.2,214.3,409.2z"/>
	</g>
</g>
</svg>
