<?xml version="1.0" encoding="utf-8"?>
<!-- Generator: Adobe Illustrator 25.3.1, SVG Export Plug-In . SVG Version: 6.00 Build 0)  -->
<svg version="1.1" id="Layer_1" xmlns="http://www.w3.org/2000/svg" xmlns:xlink="http://www.w3.org/1999/xlink" x="0px" y="0px"
	 viewBox="0 0 595.3 841.9" style="enable-background:new 0 0 595.3 841.9;" xml:space="preserve">
<style type="text/css">
	.st0{fill:none;stroke:#000000;stroke-width:0.25;stroke-miterlimit:10;}
</style>
<g id="XMLID_1_">
	<g>
		<path d="M61.7,665.7c-5.2-18.1-7.3-38.7-4.3-63.8c6.6-54.3,30-138.7,42.1-201.4c-0.3,2.1-0.6,4.1-0.8,6.1
			c-11.7,54.9-29,125.1-37.9,177.2C56.2,610.4,54.8,637.6,61.7,665.7z"/>
		<path d="M106.8,343.7c1.5,12.3-1.8,27.8-4.7,42.7C104.9,369.8,106.7,355.1,106.8,343.7z"/>
		<path d="M106.7,338.4c0.1,1.7,0.1,3.4,0.1,5.3c-0.1-0.6-0.2-1.1-0.2-1.7c-1.7-10.5-3.6-20-5.8-28.6
			C103.1,321.4,105.1,329.7,106.7,338.4z"/>
		<path d="M77.2,213.6c-5.1,30.3,11.6,50.8,23.6,99.9C89.1,272.6,71,241.2,77.2,213.6z"/>
		<path d="M87,185.3c-3,7.1-4.4,11.7-6,17.6c-1.7,3.5-2.9,7-3.7,10.6C78.6,205.2,81.7,196,87,185.3z"/>
		<path d="M115.6,142.9c11.8-10.3,23.4-24.1,33.8-35c-20,22.8-48.9,49.7-62.3,77.1C88.5,181.9,101.6,155.1,115.6,142.9z"/>
		<path d="M159.4,98.1c19.5-19.6,35.8-26.3,55.8-37.2c0.1,0,0.2-0.1,0.2-0.1C197.7,70.8,175.8,83.7,159.4,98.1z"/>
		<path d="M229.6,55.7c-3.9,1.2-8,2.7-13.1,4.6c-0.4,0.1-0.7,0.3-1.1,0.5c0.1-0.1,0.2-0.1,0.4-0.2C220.4,58,225,56.7,229.6,55.7z"/>
		<path d="M249,50.7c5.5-1.8,11.4-2.3,17.5-2.5C260.2,48.6,254.2,49.4,249,50.7z"/>
		<path d="M249,50.7c-6.5,2.8-12.9,3.6-19.4,5C235.4,53.8,240.9,52.5,249,50.7z"/>
		<path d="M284.9,46.8c8.7-0.1,15.9,0.3,22.8,1.2c-8.1-0.4-18.8-0.8-29.6-0.4c1.8-0.2,3.5-0.4,5.3-0.6
			C283.9,46.8,284.4,46.8,284.9,46.8z"/>
		<path d="M312.9,48.3c27.2,0.5,32.2,5.5,62.9,24c0.6,0.4,1.2,0.8,1.7,1.3c0.4,0.4,0.8,0.8,1.2,1.2c-13.9-9.4-28.2-17.4-45.3-22.1
			c-0.3-0.1-0.7-0.2-1-0.2c-9.2-1.9-16.8-3.4-24.7-4.4C309.6,48.1,311.3,48.2,312.9,48.3z"/>
		<path d="M445.7,138.9c-28.1-34.7-39.1-38.6-67-64.1c9.1,6.2,18.1,13.1,27.5,20c0.3,0.2,0.6,0.4,0.8,0.7
			c17,14.7,29.9,32.6,46.1,51.7C450.6,144.3,448.1,141.6,445.7,138.9z"/>
		<path d="M503.9,218.3c-9.3-22.6-27.8-45.3-43.8-63.3c-2.4-2.7-4.7-5.3-6.9-7.9c18.8,20.3,41.5,42.5,50.4,69.1
			c1.1,3.4,2,6.4,2.7,9.2l-0.1,0C505.6,223.1,504.9,220.8,503.9,218.3z"/>
		<path d="M502.2,263.8c4.2-12.5,7.3-24.9,4.1-38.3l0.1,0C510.6,243.1,507,250.8,502.2,263.8z"/>
		<path d="M499.4,271.7c-4.1,12.6-8.2,30.7-8.4,62.5c0,1.8,0,3.7,0.1,5.8l-0.2,0c-0.3-8.8-0.3-17.6,0.1-26.5
			C489.8,298.5,494.6,284.9,499.4,271.7z"/>
		<path d="M491.1,340c1.7,42.5,22.7,136.6,31.9,208.4c-3.5-21.2-8.4-43.4-12.2-65.2c-8-45.7-18.4-93.6-19.9-143.2L491.1,340z"/>
		<path d="M523,548.4c2.8,17.3,4.7,34,4.3,49.4c0,2.7-0.1,5.2-0.2,7.8C527.4,589.9,525.7,570.2,523,548.4z"/>
		<path d="M524.3,628.9c0.3-0.9,0.5-1.8,0.7-2.8c-0.9,5.7-2.1,11-3.4,16.2C522.4,638.5,523.3,634.1,524.3,628.9z"/>
		<path d="M504.6,690.7c5.8-15.6,12.4-30.8,17-48.4c-5.4,24.8-8.9,27.1-17.7,50.5c0.2-0.5,0.3-1,0.5-1.5
			C504.5,691.1,504.5,690.9,504.6,690.7z"/>
		<path d="M489.3,632.5c-0.7,20.6-0.8,39.4-2,57.4l-0.5,0c3.5-50.6-6.1-110.9-15.1-160l1.4-0.3C479.2,561.9,490.2,606.2,489.3,632.5
			z"/>
		<path d="M499.1,706.3c1.8-5.2,3.4-9.6,4.8-13.4c-1.7,5.5-4.4,13.9-7.6,23.4C497.5,711.8,498.4,708.3,499.1,706.3z"/>
		<path d="M480.5,758.6c5.4-12.4,11.1-28.4,15.8-42.2C493.4,727.2,488.7,743.8,480.5,758.6z"/>
		<path d="M480.5,758.6c-3,6.8-5.8,12.4-8.4,16.1c-0.7,1.1-1.7,1.9-2.8,2.6c-3.5,2.3-7.1,4.4-10.9,6.4
			C467.8,777.7,475,768.6,480.5,758.6z"/>
		<path d="M227.4,805c5,0.7,8.1,1.8,11.5,2.6c-8.8-1.6-16.6-3.5-22.4-5.7C220.3,802.9,224,804,227.4,805z"/>
		<path d="M132.6,772.1c12,7.5,25.2,12.9,38.4,17.2C157.7,785.3,144.9,780.3,132.6,772.1z"/>
		<path d="M214.5,801.1c0.6,0.3,1.3,0.5,2,0.8c-13.7-3.7-29.6-7.3-45.5-12.6c13.6,4.1,27.6,7.1,42.3,11.3
			C213.7,800.8,214.1,800.9,214.5,801.1z"/>
		<path d="M97.2,736.4c11.3,16.4,23,27.5,35.2,35.7c-14.1-8.7-26.5-20.2-35.4-36h0C97.1,736.1,97.2,736.2,97.2,736.4z"/>
		<path d="M96.8,735.7c0.1,0.1,0.1,0.2,0.2,0.3h0c-18.9-24.2-29.8-47.6-35.3-70.3C69.3,692.4,83.4,713.6,96.8,735.7z"/>
		<path d="M346.2,811.9c33.6-6.7,77.8-10.3,112.3-28.2c-2,1.2-4,2.4-6.1,3.3c-15.2,7.6-30.7,13.7-43.7,17.8
			c-0.2,0.1-0.5,0.1-0.8,0.2c-31.9,7.9-40.6,6.4-61.5,8.7L346.2,811.9z"/>
		<path d="M467.7,766.9c-15.1,29.3-95.4,27.8-121.5,45l0.2,1.8c-5.2,0.6-11.2,1.4-18.5,2.7l-0.4-2.1c44.6-8.1,71.4-48.3,85.8-90.7
			c3.4-9.2,5.2-15.3,5.9-20.4l1.8,0.3c-4,26-16.2,55.4-46.3,92.6c44.1-5.4,75.3-13.2,87.3-27.9c15.5-19,22.7-46.7,24.8-78.3l0.5,0
			C485.4,716.5,481,741.2,467.7,766.9z"/>
		<path d="M199.2,254.9c15.9-7.3,29.8-22,40.1-35.9l1.4,1c-2.7,3.6-6.2,9.1-10.5,14.4c-1.6,2.1-7.4,8.1-8.9,9
			c-5.1,4.7-13.2,10.2-16.9,11.3c-1.8,0.5-3.3,1-4.8,1.5L199.2,254.9z"/>
		<path d="M241,203c-7.7,5.1-23.8,19.4-37.5,33.3c-0.1,0.1-0.2,0.2-0.3,0.3l-2.1-1.2c5.7-6.8,11.9-13.8,18.9-18.9
			c7.1-7.3,14.3-12,21.2-16.1l1,1.8C241.8,202.4,241.4,202.7,241,203z"/>
		<path d="M380.2,241.4c-14.5-14.7-28-29.6-36.5-36.8c-2.9-2.4-1.7-2.1-3.2-0.1c-1.4,2.6-2.8,2.8-2.7,4.2l-2.3,0.2
			c-0.2-1.5-0.3-2.9-0.4-4.2c-0.1-1.7,2.9-3.9,2.8-5.2c-17.5-14.4-59.2-19.9-87.5-2.1l-1.8-1.5c12.8-7.6,21.3-12.7,46-12.9
			c11.9,0.4,24.5,2,34.6,7.2c11.4,5.8,23.5,18.9,30.7,25.9c7.1,6.9,15.2,15.9,22.2,23.6L380.2,241.4z"/>
		<path d="M387.9,194c-12.3-14.4-23.3-24.5-36.6-36.4c-0.2-0.2-0.5-0.4-0.7-0.6c-28.9-21.3-40-36.5-62.8-36.2
			c-0.8,0-1.7,0.1-2.5,0.3c-12.9,2.8-27.9,12.2-41.4,21.5l-1.4-2c0.4-0.3,0.8-0.6,1.2-0.9c48.2-44.6,75-11.9,95.3,4.8
			c0.3,0.3,0.6,0.5,1,0.7c18.1,11.5,50.5,44.1,55.8,55.9c1.4,1.5,3.1,6.8,5.2,11.3l-2.3,1.1c-0.2-0.5-0.4-0.9-0.6-1.3
			c-4.1-7.5-5.5-11.1-9-16.8C388.7,194.9,388.3,194.4,387.9,194z"/>
		<path d="M240.3,285.8c-30-3.9-21.9-3-49.2-18c-1.1-0.5-2.6-1.4-4.3-2.5c-6.4-4.1-14.9-0.4-16.1,7.1
			c-4.7,29.4-14.3,87.3-19.8,119.6c-3.6,16.1-10.7,39.3-17.8,67.8c-0.1,0.4-0.2,0.8-0.4,1.2C108.7,525,82.1,573.4,79,632.9
			c-0.1,1,0,1.9,0.2,2.8c9.1,45.2,47.5,127.5,138.3,148c-35.4-30.6-21.4-107-19.8-139.2c3.6-43.3,9.1-86.6,20.7-128.3
			c0.1-0.3,0.2-0.6,0.2-0.9c4-23.4,9.1-62.1,12.3-85.4c7.2-36.2,8.7-70.5,12.9-107.3c1.6-18.4,1-15.4,0.6-33.8
			C244.7,286.3,241.2,285.1,240.3,285.8z M402.7,611.3l1.4-0.4c-13.7-46.9-26.6-86-32.3-126.3c0-0.4-0.1-0.8-0.1-1.1
			c-0.4-8.4-1.2-13.9-1.8-23c0-0.3,0-0.5-0.1-0.8l-2.3-16.4c-0.1-1.1-1.7-12.9-2.9-22.1c-0.7-5.6-5.6-9.7-11.2-9.1
			c-15.3,1.6-29.8-2.2-55-2.4c-0.3,0-0.6,0-0.9,0c-8.2,0.6-52.5,1-59,10.2c-1.5,2.1-4.3,14.5-5.5,27.8c-0.4,3.4-0.8,7.3-1.5,12.5
			c0,0.2-0.1,0.4-0.1,0.6c-4,20.5-13.1,83.3-15.9,93.6c-0.1,0.5-0.2,1.1-0.3,1.6c-1.8,14.8-2.4,18.5-4.3,35.1
			c-0.1,0.7-0.2,1.3-0.4,2c-1.5,4.8-7.2,30.5-4.7,28.7c8.4-16.6,31.8-40.7,57.6-45C312.6,562.8,381.4,579.9,402.7,611.3z
			 M338.4,210.5c9.7,21.3,29.8,41,49,49.8c3.9,1,8,0.9,11.7,0c-4.6-3.1-14.3-13.7-18.4-18.4c-0.1-0.2-0.3-0.3-0.4-0.5l2.1-1.6
			c3.7,4,7.1,7.7,9.9,10.4c0.4,0.4,0.9,0.8,1.4,1.1c10.2,7.1,10.1,10.6,12.2,5.1c3.1-4.5,2.5-6.8,1.8-11.5c-0.3-4.8-2.7-10.8-4-17.3
			c-0.8-5.3-3.1-10-5-14.2l2.3-1.1c1.6,3.5,3.6,6.6,5.8,7.1c1.9,0,0-13.7-2.2-19.6c-5.6-18-27.5-47.9-34-53.5
			c-12.1-14.9-32.3-26.9-48.6-39.6c-22.3-15.8-40.9-13.9-61.6-2.7c-24.5,10.7-33.6,20.5-48.1,32.9c-0.3,0.3-0.7,0.6-0.9,0.9
			c-15.9,16.9-23.1,31.7-33.8,58.9c-1,0.9-4.9,19.8,3.1,23.4c4.5-13.8,20.9-55.7,61.5-79.4c0.1-0.1,0.3-0.2,0.4-0.2l1.4,2
			c-6,4.1-11.7,8.3-16.8,11.8c-0.6,0.4-1.1,0.9-1.6,1.4c-9.7,10.1-8.5,9-13.4,16.9c-0.3,0.5-0.7,1-1.1,1.4
			c-6.2,6.9-9.9,12.9-14.3,20.1c-5.9,7.9-8.3,16.2-9.5,20.2c-0.8,4-3.5,9.8-4,14.2c-2.7,12.1-3.6,14.4,1.6,24.8
			c5.2-4.5,10.4-11.2,16.1-18l2.1,1.2c-0.1,0.1-0.2,0.2-0.3,0.3c-4,4.8-10.7,14.9-15.3,17.9c3.7,0.9,7.8,1,11.7,0l0.5,1.4
			c-20.1,6.9-7.7,10,11,18.5c0.6,0.3,3.9,1.3,4.5,1.5c7.6,3.7,13.1,1.9,18.4,3.8c14,4.9,12.9,3,12.3-9.9c-0.3-7.5,0.1-16.2,0.7-24.7
			c2.2-31.9,0.1-33.3-5.9-25.4l-1.4-1c2.5-3.4,4.8-6.8,6.9-10c1.5-2.3-0.1-2.1-1.1-4.2c-1.7-2.8-1.2-3.7-3-2.6l-1-1.8
			c2.1-1.3,4.3-2.5,6.3-3.7c0.4-0.2,0.8-0.5,1.2-0.7l1.8,1.5c-0.8,0.5-1.7,1.1-2.5,1.6c0.3,1.1,3.6,3.3,3.7,5.8
			c1.2,28.7-4.7,134.9-5.9,148.2c-0.9,7.2-0.3,11.7-3.1,37.8c-0.3,2-0.8,5.2-0.9,6.3c0,0,0,0.1,0,0.1c-0.4,5.1-0.4,4.5-0.9,7.9
			c-0.7,2.4-1.2,6.4-1.8,9.1c9.5-7.2,40.8-6.6,64.8-9c15.3-0.9,20.2,1.4,47.2,2.7c8.6,0,10.8,0.9,10.8-5.4c-0.3-1.5-0.1-2-0.4-5.9
			c-4.8-23.7-22.1-149.5-26-187.9l2.3-0.2C337.8,209.2,338,209.8,338.4,210.5z M404.7,266.9c-14.1,11.2-25.3,17.9-44.7,25.2
			c-4.3,1.6-7,5.8-6.7,10.4c1,17.1,6.1,55.6,6.5,61.9c0,0.4,0.1,0.9,0.2,1.3c7,36.2,8,52.4,13.6,73.6c0.1,0.2,0.1,0.5,0.2,0.8
			c6.8,37.5,4.1,45.5,11.9,83.2c8.6,37.2,27.6,66.1,32.4,105c2.6,24.8,7.2,48.2,3.1,75.1l-1.8-0.3c1.6-10.6-1.2-16.5-1.9-36.2
			c0-0.4,0-0.9-0.1-1.3c-3.7-24.1-11.2-48.7-31-65.1c-37.8-27.9-94.5-30.1-128.2-18c-32,6.8-56.3,49.5-58,90
			c-2.8,46.6-10.3,74.1,29.6,107.7c7.3,7.5,11.4,10.6,21.8,17.8c17.9,12.7,42.9,13.8,63.6,17.3l0.8,0.3c4-0.2,8-0.7,11.7-1.3
			l0.4,2.1c-2.7,0.5-5.5,1-8.6,1.6L313,818c-14.9-3-45-5.4-69.4-9.5c1.5,0.2,3.2,0.2,5.1,0.2c3.3,0.9,10.6,1,12.3,0.6
			c-8.3-6.9-32.5-12.8-42.4-18c-0.3-0.2-0.7-0.3-1-0.5c-34.4-13.1-49.1-15.7-73.1-30.2c-0.9-0.5-1.7-1.2-2.4-1.9
			c-26.1-28.1-64.3-77.3-67.4-106.9c-12.6-60.4,33.4-133.6,51.5-194.1c0.1-0.3,0.2-0.6,0.2-0.9c14.3-63.9,29.2-136.4,37.6-190.8
			c0.1-0.3,0.1-0.7,0.1-1c0.6-15.9,4.1-31.2,4.8-47.7c0-0.3,0-0.6,0.1-0.9c3.6-26.3,7.1-39.2,20.6-62c0.2-0.4,0.5-0.7,0.7-1.1
			c15-19.9,19.5-28.2,41.3-38.7c0.6-0.3,1.1-0.6,1.6-1c8.7-6.7,20.7-11.5,28.1-16.4c0.4-0.2,0.8-0.5,1.2-0.7
			c21.8-10.8,38.2-8.9,60.4,2.3c0.5,0.2,1,0.6,1.5,0.9c20.2,14.2,32,21.9,55.7,41.5c16,14.8,21.1,31.1,30.8,59.5
			c0.2,0.7,0.4,1.5,0.5,2.3c2.1,17.7-0.2,23.1,5.3,40.8c4.8,15.4,9.1,29.8,13.8,45c14.9,48.7,29.4,158.9,39.6,221.3
			c0.7,5.7,1.7,12.2,3.1,19.4l-1.4,0.3c-5.1-27.8-10.1-52.1-12.4-69c-11.7-72.2-22.7-107.2-32.9-170.2c0-0.4-0.1-0.7-0.2-1.1
			c-2.5-9.2-3.3-13.9-5.3-18.6C418.1,264.6,410,262.6,404.7,266.9z M347.6,277.1c2.8,17.3,6.8,14.8,15.4,10.9c2.2-1,3.6-1.4,7.7-3.4
			c1.3-0.5,7.4-3.6,8.7-4.3c13.6-7.5,30.9-14.3,4.5-19c-3.3-0.6-15.9-9.8-22.5-15.9c-0.1-0.1-0.1-0.1-0.2-0.1
			c-7.7-5.1-24-35.2-16.7,9.7C345.9,263,346.6,271,347.6,277.1z"/>
	</g>
	<g>
		<path class="st0" d="M374.7,796c30.1-37.2,42.3-66.5,46.3-92.6c4.2-26.9-0.5-50.3-3.1-75.1c-4.8-38.9-23.8-67.8-32.4-105
			c-7.8-37.7-5.1-45.7-11.9-83.2c0-0.2-0.1-0.5-0.2-0.8c-5.6-21.3-6.5-37.4-13.6-73.6c-0.1-0.4-0.1-0.9-0.2-1.3
			c-0.4-6.3-5.5-44.9-6.5-61.9c-0.3-4.6,2.5-8.8,6.7-10.4c19.4-7.3,30.7-14,44.7-25.2c5.4-4.3,13.5-2.3,16.2,4
			c2,4.7,2.8,9.4,5.3,18.6c0.1,0.3,0.2,0.7,0.2,1.1c10.2,63,21.2,98,32.9,170.2c2.4,16.9,7.3,41.2,12.4,69
			c9,49.2,18.5,109.5,15.1,160c-2.1,31.5-9.3,59.3-24.8,78.3C450,782.8,418.8,790.6,374.7,796"/>
		<path class="st0" d="M238.9,807.6c1.5,0.3,3.1,0.5,4.7,0.8c24.4,4.1,54.5,6.5,69.4,9.5"/>
		<path class="st0" d="M132.6,772.1c12.3,8.2,25.1,13.2,38.4,17.2c13.6,4.1,27.6,7.1,42.3,11.3c0.4,0.1,0.8,0.3,1.2,0.5
			c0.6,0.3,1.3,0.5,2,0.8c5.8,2.2,13.6,4.1,22.4,5.7"/>
		<path class="st0" d="M77.2,213.6c-6.2,27.6,11.9,59,23.6,99.9c2.3,7.9,4.3,16.3,5.9,25c0.1,1.7,0.1,3.4,0.1,5.3
			c-0.1,11.4-1.8,26-4.7,42.7c-0.8,4.6-1.7,9.3-2.6,14.1C87.4,463.2,64,547.6,57.4,602c-3,25.1-0.9,45.7,4.3,63.8
			c7.6,26.7,21.7,47.9,35.1,70c0.1,0.1,0.1,0.2,0.2,0.3c0.1,0.1,0.2,0.2,0.2,0.3c11.3,16.4,23,27.5,35.2,35.7"/>
		<path class="st0" d="M87,185.3c-3,7.1-4.4,11.7-6,17.6c-1.7,3.5-2.9,7-3.7,10.6"/>
		<path class="st0" d="M229.6,55.7c-3.9,1.2-8,2.7-13.1,4.6c-0.4,0.1-0.7,0.3-1.1,0.5c-0.1,0-0.2,0.1-0.2,0.1
			c-20,10.8-36.3,17.6-55.8,37.2c-0.4,0.4-0.8,0.8-1.2,1.2c-2.8,2.5-5.8,5.4-8.8,8.6c-10.4,10.9-22,24.6-33.8,35
			c-14,12.2-27,39.1-28.5,42.2"/>
		<path class="st0" d="M278.1,47.5c-3.9,0.1-7.8,0.3-11.5,0.6c-6.3,0.5-12.4,1.3-17.5,2.5c-8.1,1.8-13.6,3.2-19.4,5"/>
		<path class="st0" d="M502.2,263.8c4.8-13,8.5-20.7,4.1-38.3c-0.7-2.8-1.6-5.9-2.7-9.2c-8.9-26.6-31.6-48.9-50.4-69.1
			c-2.6-2.8-5.1-5.5-7.5-8.3c-28.1-34.7-39.1-38.6-67-64.1c-0.4-0.4-0.8-0.8-1.2-1.2c-0.5-0.5-1.1-0.9-1.7-1.3
			c-30.6-18.5-35.7-23.6-62.9-24c-1.6-0.1-3.3-0.2-5.2-0.3c-8.1-0.4-18.8-0.8-29.6-0.4"/>
		<path class="st0" d="M499.4,271.7c0.9-2.9,1.9-5.4,2.8-7.8"/>
		<path class="st0" d="M503.9,692.8c8.8-23.4,12.3-25.7,17.7-50.5c0.8-3.9,1.7-8.3,2.7-13.4c0.3-0.9,0.5-1.8,0.7-2.8
			c1.3-5.6,2-12.6,2.1-20.6c0.3-15.6-1.4-35.4-4.2-57.1c-9.2-71.9-30.2-165.9-31.9-208.4c-0.1-2.1-0.1-4-0.1-5.8
			c0.2-31.8,4.3-49.9,8.4-62.5"/>
		<path class="st0" d="M313,818l6.3-0.1c3-0.6,5.9-1.1,8.6-1.6c7.3-1.3,13.3-2.1,18.5-2.7c20.9-2.3,29.6-0.8,61.5-8.7
			c0.3-0.1,0.5-0.1,0.8-0.2c13-4,28.5-10.2,43.7-17.8c2.1-1,4.2-2.1,6.1-3.3c9.3-6,16.5-15.1,22-25.1c8.2-14.8,12.9-31.3,15.8-42.2
			c1.2-4.5,2.1-8,2.8-10c1.8-5.2,3.4-9.6,4.8-13.4"/>
		<path class="st0" d="M315,815.3c-20.7-3.5-45.7-4.6-63.6-17.3c-10.4-7.1-14.5-10.2-21.8-17.8c-39.9-33.6-32.4-61.1-29.6-107.7
			c1.8-40.5,26.1-83.2,58-90c33.7-12.1,90.4-9.9,128.2,18c19.7,16.3,27.3,40.9,31,65.1c0.1,0.4,0.1,0.9,0.1,1.3
			c0.7,19.8,3.5,25.6,1.9,36.2c-0.8,5-2.5,11.2-5.9,20.4c-14.4,42.3-41.2,82.6-85.8,90.7c-3.8,0.7-7.7,1.1-11.7,1.3"/>
		<path class="st0" d="M346.2,811.9c26.1-17.2,106.3-15.7,121.5-45c13.3-25.8,17.8-50.5,19.6-77c1.2-18,1.3-36.8,2-57.4
			c0.9-26.3-10.1-70.7-16.1-103c-1.3-7.2-2.4-13.7-3.1-19.4c-10.2-62.4-24.7-172.7-39.6-221.3c-4.7-15.2-9-29.6-13.8-45
			c-5.5-17.7-3.1-23.2-5.3-40.8c-0.1-0.8-0.3-1.5-0.5-2.3c-9.8-28.4-14.8-44.7-30.8-59.5c-23.7-19.6-35.5-27.3-55.7-41.5
			c-0.4-0.3-1-0.6-1.5-0.9c-22.2-11.2-38.6-13.1-60.4-2.3c-0.4,0.2-0.8,0.5-1.2,0.7c-7.4,5-19.4,9.7-28.1,16.4
			c-0.5,0.4-1.1,0.7-1.6,1c-21.8,10.5-26.3,18.8-41.3,38.7c-0.2,0.3-0.5,0.7-0.7,1.1c-13.5,22.8-17,35.7-20.6,62
			c0,0.3-0.1,0.6-0.1,0.9c-0.6,16.5-4.1,31.8-4.8,47.7c0,0.3,0,0.7-0.1,1c-8.4,54.4-23.3,126.9-37.6,190.8c-0.1,0.3-0.2,0.6-0.2,0.9
			c-18.1,60.5-64,133.7-51.5,194.1c3.1,29.6,41.3,78.8,67.4,106.9c0.7,0.8,1.5,1.4,2.4,1.9c24,14.5,38.7,17.1,73.1,30.2
			c0.3,0.1,0.7,0.3,1,0.5c9.9,5.3,34.2,11.2,42.4,18c-1.7,0.4-9,0.3-12.3-0.6c-1.9,0.1-3.6,0-5.1-0.2c-1.7-0.2-3.2-0.5-4.7-0.8
			c0,0,0,0,0,0c-3.4-0.8-6.5-1.9-11.5-2.6c-3.4-1.1-7.1-2.1-10.9-3.1c-13.7-3.7-29.6-7.3-45.5-12.6c-13.2-4.3-26.4-9.8-38.4-17.2
			c-0.1,0-0.1-0.1-0.2-0.1c-14.1-8.7-26.5-20.2-35.4-36c-18.9-24.2-29.8-47.6-35.3-70.3c-6.9-28.1-5.5-55.3-1-81.8
			c8.9-52.1,26.2-122.3,37.9-177.2c0.2-2,0.5-4.1,0.8-6.1c0.7-4.6,1.6-9.3,2.6-14.1c2.9-14.9,6.2-30.4,4.7-42.7
			c-0.1-0.6-0.2-1.1-0.2-1.7c-1.7-10.5-3.6-20-5.8-28.6c-12-49.1-28.7-69.6-23.6-99.9c0,0,0,0,0,0c1.4-8.4,4.5-17.5,9.8-28.2
			c0.1-0.1,0.1-0.2,0.1-0.3c13.4-27.5,42.3-54.3,62.3-77.1c0.2-0.3,0.5-0.6,0.7-0.8c2.8-3.1,5.9-6.1,9.3-9
			c16.4-14.4,38.2-27.2,56-37.3c0.1-0.1,0.2-0.1,0.4-0.2c4.6-2.6,9.2-3.9,13.8-4.9c0,0,0,0,0,0c6.4-1.4,12.9-2.2,19.4-5
			c5.5-1.8,11.4-2.3,17.5-2.5c3.8-0.1,7.7-0.2,11.5-0.6c0,0,0,0,0,0c1.8-0.2,3.5-0.4,5.3-0.6c0.5-0.1,1-0.1,1.5-0.1
			c8.7-0.1,15.9,0.3,22.8,1.2c7.9,1,15.6,2.5,24.7,4.4c0.3,0.1,0.7,0.1,1,0.2c17.1,4.8,31.5,12.7,45.3,22.1
			c9.1,6.2,18.1,13.1,27.5,20c0.3,0.2,0.6,0.4,0.8,0.7c17,14.7,29.9,32.6,46.1,51.7c2.2,2.6,4.5,5.3,6.9,7.9
			c16,18,34.5,40.7,43.8,63.3c1,2.4,1.8,4.8,2.3,7.2c3.3,13.4,0.2,25.8-4.1,38.3c0,0,0,0,0,0c-0.9,2.6-1.8,5.2-2.8,7.8v0
			c-4.8,13.2-9.6,26.8-8.4,41.8c-0.4,8.9-0.4,17.7-0.1,26.5c1.5,49.6,11.9,97.4,19.9,143.2c3.8,21.8,8.7,44,12.2,65.2
			c2.8,17.3,4.7,34,4.3,49.4c0,2.7-0.1,5.2-0.2,7.8c-0.3,7.3-1,14.1-2.1,20.6c-0.9,5.7-2.1,11-3.4,16.2c-4.6,17.6-11.2,32.8-17,48.4
			c-0.1,0.2-0.1,0.4-0.2,0.6c-0.2,0.5-0.3,1-0.5,1.5c0,0,0,0.1,0,0.1c-1.7,5.5-4.4,13.9-7.6,23.4c-4.6,13.8-10.4,29.8-15.8,42.2
			c-3,6.8-5.8,12.4-8.4,16.1c-0.7,1.1-1.7,1.9-2.8,2.6c-3.5,2.3-7.1,4.4-10.9,6.4C424,801.7,379.8,805.3,346.2,811.9"/>
		<path class="st0" d="M217.5,783.7C126.7,763.2,88.3,681,79.2,635.7c-0.2-0.9-0.2-1.9-0.2-2.8c3.1-59.5,29.7-107.9,53.7-171.8
			c0.1-0.4,0.3-0.8,0.4-1.2c7.1-28.5,14.3-51.7,17.8-67.8c5.5-32.3,15.1-90.2,19.8-119.6c1.2-7.5,9.7-11.2,16.1-7.1
			c1.7,1.1,3.2,2,4.3,2.5c27.3,15,19.2,14.1,49.2,18c0.9-0.8,4.4,0.5,4.2,3c0.4,18.3,1,15.3-0.6,33.8c-4.2,36.8-5.7,71.1-12.9,107.3
			c-3.2,23.3-8.3,61.9-12.3,85.4c-0.1,0.3-0.1,0.6-0.2,0.9c-11.6,41.7-17.1,85-20.7,128.3C196.1,676.7,182.1,753.1,217.5,783.7z"/>
		<path class="st0" d="M403.5,612.5c-0.2-0.4-0.5-0.8-0.8-1.1c-21.3-31.4-90.2-48.5-139.3-34.6c-25.8,4.3-49.2,28.4-57.6,45
			c-2.6,1.8,3.2-23.9,4.7-28.7c0.2-0.6,0.3-1.3,0.4-2c1.8-16.6,2.4-20.3,4.3-35.1c0.1-0.5,0.2-1.1,0.3-1.6
			c2.8-10.3,11.9-73.2,15.9-93.6c0.1-0.2,0.1-0.4,0.1-0.6c0.7-5.2,1-9.1,1.5-12.5c1.2-13.3,4-25.7,5.5-27.8
			c6.5-9.1,50.8-9.5,59-10.2c0.3,0,0.6,0,0.9,0c25.2,0.2,39.7,3.9,55,2.4c5.6-0.6,10.5,3.6,11.2,9.1c1.2,9.2,2.7,21,2.9,22.1
			l2.3,16.4c0,0.2,0.1,0.5,0.1,0.8c0.6,9.1,1.4,14.6,1.8,23c0,0.4,0,0.8,0.1,1.1c5.7,40.3,18.6,79.5,32.3,126.3"/>
		<path class="st0" d="M370.8,284.6c-4.2,2-5.5,2.4-7.7,3.4c-8.7,3.9-12.6,6.4-15.4-10.9c-1-6.1-1.7-14.1-3.1-22.2
			c-7.3-45,9-14.8,16.7-9.7c0.1,0.1,0.1,0.1,0.2,0.1c6.6,6.1,19.2,15.3,22.5,15.9c26.4,4.7,9,11.5-4.5,19
			C378.2,280.9,372.1,284.1,370.8,284.6z"/>
		<path class="st0" d="M199.2,254.9c-3.9,1-8,0.9-11.7,0c4.6-3,11.3-13.2,15.3-17.9c0.1-0.1,0.2-0.2,0.3-0.3
			c0.1-0.1,0.2-0.2,0.3-0.3c13.7-13.9,29.8-28.2,37.5-33.3c0.4-0.3,0.8-0.5,1.1-0.7c1.8-1.1,1.4-0.2,3,2.6c1.1,2.1,2.6,1.9,1.1,4.2
			c-2.1,3.2-4.4,6.6-6.9,10C229,232.9,215.2,247.6,199.2,254.9"/>
		<path class="st0" d="M184.9,253.4c-5.2-10.4-4.3-12.6-1.6-24.8c0.6-4.3,3.3-10.2,4-14.2c1.1-4.1,3.6-12.4,9.5-20.2
			c4.4-7.2,8.1-13.1,14.3-20.1c0.4-0.4,0.8-0.9,1.1-1.4c4.9-8,3.7-6.8,13.4-16.9c0.5-0.5,1-1,1.6-1.4c5.1-3.6,10.8-7.7,16.8-11.8
			c13.5-9.4,28.6-18.8,41.4-21.5c0.8-0.2,1.7-0.3,2.5-0.3c22.7-0.3,33.9,14.9,62.8,36.2c0.2,0.2,0.5,0.4,0.7,0.6
			c13.4,11.8,24.4,22,36.6,36.4c0.4,0.4,0.8,1,1.1,1.4c3.5,5.7,4.9,9.2,9,16.8c0.2,0.4,0.4,0.9,0.6,1.3c1.9,4.2,4.2,8.9,5,14.2
			c1.4,6.5,3.7,12.5,4,17.3c0.7,4.7,1.4,7-1.8,11.5c-2.2,5.5-2,2-12.2-5.1c-0.5-0.3-1-0.7-1.4-1.1c-2.8-2.8-6.2-6.4-9.9-10.4
			c-7.1-7.7-15.2-16.7-22.2-23.6c-7.2-7-19.3-20-30.7-25.9c-10.1-5.2-22.7-6.8-34.6-7.2c-24.8,0.1-33.3,5.3-46,12.9
			c-0.4,0.2-0.8,0.5-1.2,0.7c-2.1,1.2-4.2,2.4-6.3,3.7c-6.8,4.1-14.1,8.8-21.2,16.1c-7,5.1-13.2,12.1-18.9,18.9
			C195.3,242.2,190.1,248.9,184.9,253.4"/>
		<path class="st0" d="M180.6,220.3c-8.1-3.6-4.2-22.5-3.1-23.4c10.7-27.2,17.9-42,33.8-58.9c0.3-0.3,0.6-0.6,0.9-0.9
			c14.6-12.4,23.6-22.2,48.1-32.9c20.7-11.2,39.3-13.1,61.6,2.7c16.2,12.7,36.5,24.7,48.6,39.6c6.5,5.7,28.4,35.5,34,53.5
			c2.2,5.9,4.1,19.6,2.2,19.6c-2.2-0.5-4.2-3.6-5.8-7.1c-2.1-4.5-3.8-9.8-5.2-11.3c-5.3-11.8-37.6-44.4-55.8-55.9
			c-0.3-0.2-0.6-0.4-1-0.7c-20.3-16.7-47.1-49.4-95.3-4.8c-0.4,0.3-0.7,0.6-1.2,0.9c-0.1,0.1-0.3,0.2-0.4,0.2
			C201.5,164.6,185.1,206.4,180.6,220.3"/>
		<path class="st0" d="M387.3,260.3c-19.2-8.8-39.3-28.5-49-49.8c-0.3-0.8-0.5-1.3-0.6-1.8c-0.1-1.5,1.3-1.7,2.7-4.2
			c1.5-1.9,0.4-2.2,3.2,0.1c8.5,7.1,22,22.1,36.5,36.8c0.1,0.2,0.3,0.3,0.4,0.5c4.1,4.7,13.8,15.4,18.4,18.4
			C395.3,261.2,391.2,261.4,387.3,260.3"/>
		<path class="st0" d="M215.2,276.3c-0.6-0.2-3.9-1.2-4.5-1.5c-18.6-8.4-31-11.6-11-18.5c1.4-0.5,3-1,4.8-1.5
			c3.8-1.1,11.8-6.6,16.9-11.3c1.4-0.9,7.2-7,8.9-9c4.2-5.4,7.7-10.9,10.5-14.4c5.9-7.8,8.1-6.4,5.9,25.4c-0.6,8.4-1,17.2-0.7,24.7
			c0.6,12.9,1.7,14.8-12.3,9.9C228.3,278.2,222.8,280,215.2,276.3"/>
		<path class="st0" d="M241.7,397.4c0.1-1,0.6-4.3,0.9-6.3c2.9-26.1,2.2-30.6,3.1-37.8c1.2-13.3,7.1-119.5,5.9-148.2
			c-0.1-2.6-3.4-4.7-3.7-5.8c0.8-0.6,1.6-1.1,2.5-1.6c28.4-17.8,70-12.3,87.5,2.1c0.1,1.3-3,3.4-2.8,5.2c0.1,1.2,0.2,2.6,0.4,4.2
			c3.9,38.4,21.2,164.2,26,187.9c0.2,3.9,0.1,4.4,0.4,5.9c0,6.3-2.2,5.4-10.8,5.4"/>
		<path class="st0" d="M351.1,408.2c-27-1.4-31.9-3.6-47.2-2.7c-24,2.4-55.3,1.8-64.8,9c0.6-2.8,1.1-6.7,1.8-9.1
			c0.5-3.4,0.4-2.8,0.9-7.9c0,0,0,0,0,0s0,0,0-0.1c0,0,0,0.1,0,0.1c0,0,0,0,0,0.1c0,0,0,0.1,0,0.1c0,0,0,0,0,0c0,0.1,0,0.1,0,0.1"/>
	</g>
</g>
</svg>
